<svg width="63" height="14" viewBox="0 0 63 14" fill="none" xmlns="http://www.w3.org/2000/svg">
<rect y="2" width="12" height="1" fill="white" fill-opacity="0.6"/>
<rect y="6.5" width="12" height="1" fill="white" fill-opacity="0.6"/>
<rect y="11" width="12" height="1" fill="white" fill-opacity="0.6"/>
<path d="M22.926 4.51V12H20.812V1.92H24.074L26.328 9.172L28.568 1.92H31.816V12H29.716V4.51L27.252 12H25.39L22.926 4.51ZM33.7385 1.92H41.3265V3.894H35.9505V5.924H40.9205V7.8H35.9505V10.026H41.2985V12H33.7385V1.92ZM44.9375 4.986V12H42.8095V1.92H45.2175L49.4315 8.948V1.92H51.5455V12H49.1375L44.9375 4.986ZM57.6105 12.168C56.7611 12.168 56.0145 12.014 55.3705 11.706C54.7265 11.398 54.2225 10.9453 53.8585 10.348C53.5038 9.74133 53.3265 9.00867 53.3265 8.15V1.92H55.5385V8.15C55.5385 8.85 55.7158 9.37733 56.0705 9.732C56.4345 10.0773 56.9478 10.25 57.6105 10.25C58.2731 10.25 58.7865 10.0773 59.1505 9.732C59.5145 9.37733 59.6965 8.85 59.6965 8.15V1.92H61.8945V8.15C61.8945 9.00867 61.7125 9.74133 61.3485 10.348C60.9938 10.9453 60.4945 11.398 59.8505 11.706C59.2065 12.014 58.4598 12.168 57.6105 12.168Z" fill="white"/>
</svg>
