<svg width="100" height="15" viewBox="0 0 100 15" fill="none" xmlns="http://www.w3.org/2000/svg">
<path d="M5.16667 6.72222L7.5 9.05556L9.83333 6.72222M7.5 14.5C3.63401 14.5 0.5 11.366 0.5 7.5C0.5 3.63401 3.63401 0.5 7.5 0.5C11.366 0.5 14.5 3.63401 14.5 7.5C14.5 11.366 11.366 14.5 7.5 14.5Z" stroke="white" stroke-opacity="0.6" stroke-linecap="square"/>
<path d="M27.19 12.668C25.846 12.668 24.7867 12.3553 24.012 11.73C23.2373 11.1047 22.8453 10.2367 22.836 9.126H24.992C25.0013 9.78867 25.2113 10.2507 25.622 10.512C26.042 10.7733 26.5927 10.904 27.274 10.904C27.834 10.904 28.2773 10.7967 28.604 10.582C28.94 10.3673 29.108 10.064 29.108 9.672C29.108 9.448 29.0473 9.26133 28.926 9.112C28.814 8.95333 28.5853 8.81333 28.24 8.692C27.904 8.56133 27.4047 8.44 26.742 8.328C25.454 8.11333 24.516 7.75867 23.928 7.264C23.3493 6.76 23.06 6.05533 23.06 5.15C23.06 4.59 23.2187 4.09067 23.536 3.652C23.8533 3.21333 24.3013 2.87267 24.88 2.63C25.468 2.378 26.154 2.252 26.938 2.252C28.254 2.252 29.2667 2.55067 29.976 3.148C30.6853 3.74533 31.0633 4.58067 31.11 5.654H28.982C28.954 5.094 28.772 4.68333 28.436 4.422C28.1093 4.15133 27.61 4.016 26.938 4.016C26.4433 4.016 26.0467 4.114 25.748 4.31C25.4587 4.49667 25.314 4.75333 25.314 5.08C25.314 5.31333 25.37 5.50933 25.482 5.668C25.594 5.81733 25.8087 5.95733 26.126 6.088C26.4527 6.21867 26.9193 6.33533 27.526 6.438C28.506 6.606 29.276 6.82533 29.836 7.096C30.4053 7.36667 30.8067 7.70267 31.04 8.104C31.2733 8.496 31.39 8.97667 31.39 9.546C31.39 10.5447 31.0027 11.3147 30.228 11.856C29.4533 12.3973 28.4407 12.668 27.19 12.668ZM32.7932 2.42H40.3812V4.394H35.0052V6.424H39.9752V8.3H35.0052V10.526H40.3532V12.5H32.7932V2.42ZM41.8642 2.42H49.4522V4.394H44.0762V6.424H49.0462V8.3H44.0762V10.526H49.4242V12.5H41.8642V2.42ZM60.6858 5.276L59.0338 12.5H56.5418L53.7138 2.42H56.0378L57.8998 9.882L59.5518 2.42H61.8058L63.4578 9.882L65.3198 2.42H67.6438L64.8158 12.5H62.3378L60.6858 5.276ZM73.4795 12.668C72.4155 12.668 71.5008 12.4393 70.7355 11.982C69.9701 11.5153 69.3868 10.89 68.9855 10.106C68.5935 9.31267 68.3975 8.43067 68.3975 7.46C68.3975 6.48933 68.5935 5.612 68.9855 4.828C69.3868 4.03467 69.9701 3.40933 70.7355 2.952C71.5008 2.48533 72.4155 2.252 73.4795 2.252C74.5528 2.252 75.4721 2.48533 76.2375 2.952C77.0028 3.40933 77.5815 4.03467 77.9735 4.828C78.3655 5.612 78.5615 6.48933 78.5615 7.46C78.5615 8.43067 78.3655 9.31267 77.9735 10.106C77.5815 10.89 77.0028 11.5153 76.2375 11.982C75.4721 12.4393 74.5528 12.668 73.4795 12.668ZM70.6935 7.46C70.6935 8.412 70.9221 9.19133 71.3795 9.798C71.8461 10.4047 72.5461 10.708 73.4795 10.708C74.4128 10.708 75.1081 10.4047 75.5655 9.798C76.0321 9.19133 76.2655 8.412 76.2655 7.46C76.2655 6.508 76.0321 5.72867 75.5655 5.122C75.1081 4.51533 74.4128 4.212 73.4795 4.212C72.5461 4.212 71.8461 4.51533 71.3795 5.122C70.9221 5.72867 70.6935 6.508 70.6935 7.46ZM80.0486 2.42H84.7106C85.9146 2.42 86.8153 2.69067 87.4126 3.232C88.0193 3.77333 88.3226 4.50133 88.3226 5.416C88.3226 5.92933 88.1873 6.396 87.9166 6.816C87.6553 7.236 87.2773 7.59067 86.7826 7.88C87.1933 8.076 87.5013 8.33267 87.7066 8.65C87.912 8.96733 88.0473 9.35467 88.1126 9.812L88.5186 12.5H86.2646L85.9286 10.176C85.854 9.66267 85.6906 9.28467 85.4386 9.042C85.1866 8.79933 84.818 8.678 84.3326 8.678H82.2606V12.5H80.0486V2.42ZM84.3466 6.97C84.9253 6.97 85.3546 6.858 85.6346 6.634C85.9146 6.40067 86.0546 6.05067 86.0546 5.584C86.0546 4.66933 85.4853 4.212 84.3466 4.212H82.2606V6.97H84.3466ZM89.9126 2.42H92.1246V7.096L96.5206 2.42H99.2646L95.2326 6.508L99.2646 12.5H96.6186L93.7206 8.048L92.1246 9.672V12.5H89.9126V2.42Z" fill="white"/>
</svg>
