<svg width="517" height="14" viewBox="0 0 517 14" fill="none" xmlns="http://www.w3.org/2000/svg">
<path d="M4.158 12.168C3.13133 12.168 2.29133 11.8973 1.638 11.356C0.984667 10.8147 0.606667 10.082 0.504 9.158H2.59C2.646 9.54067 2.80933 9.84867 3.08 10.082C3.36 10.3153 3.71933 10.432 4.158 10.432C4.65267 10.432 5.04933 10.264 5.348 9.928C5.656 9.592 5.81 9.16267 5.81 8.64C5.81 8.12667 5.656 7.70667 5.348 7.38C5.04933 7.044 4.65267 6.876 4.158 6.876C3.486 6.876 2.996 7.18867 2.688 7.814H0.644L1.526 1.92H7.42V3.768H3.22L2.912 5.826C3.34133 5.49 3.892 5.322 4.564 5.322C5.292 5.322 5.90333 5.476 6.398 5.784C6.902 6.08267 7.27533 6.484 7.518 6.988C7.77 7.492 7.896 8.04267 7.896 8.64C7.896 9.34933 7.73267 9.97 7.406 10.502C7.08867 11.034 6.64533 11.4447 6.076 11.734C5.516 12.0233 4.87667 12.168 4.158 12.168ZM13.1568 12.168C11.7662 12.168 10.7442 11.7013 10.0908 10.768C9.44683 9.83467 9.12483 8.56533 9.12483 6.96C9.12483 5.35467 9.44683 4.08533 10.0908 3.152C10.7442 2.21867 11.7662 1.752 13.1568 1.752C14.5475 1.752 15.5695 2.21867 16.2228 3.152C16.8762 4.08533 17.2028 5.35467 17.2028 6.96C17.2028 8.56533 16.8762 9.83467 16.2228 10.768C15.5695 11.7013 14.5475 12.168 13.1568 12.168ZM11.4208 6.96C11.4208 8.07067 11.5468 8.91067 11.7988 9.48C12.0602 10.04 12.5128 10.32 13.1568 10.32C13.8102 10.32 14.2628 10.04 14.5148 9.48C14.7762 8.91067 14.9068 8.07067 14.9068 6.96C14.9068 5.84933 14.7762 5.014 14.5148 4.454C14.2628 3.88467 13.8102 3.6 13.1568 3.6C12.5128 3.6 12.0602 3.88467 11.7988 4.454C11.5468 5.014 11.4208 5.84933 11.4208 6.96ZM18.5087 6.078H20.9447V3.656H22.6947V6.078H25.1167V7.828H22.6947V10.264H20.9447V7.828H18.5087V6.078Z" fill="white"/>
<path d="M37 1H34V13H37" stroke="white" stroke-opacity="0.6" stroke-width="1.5"/>
<path d="M41.812 1.92H46.166C46.978 1.92 47.6687 2.06467 48.238 2.354C48.8073 2.634 49.232 3.026 49.512 3.53C49.8013 4.034 49.946 4.608 49.946 5.252C49.946 5.90533 49.8013 6.484 49.512 6.988C49.232 7.492 48.8073 7.88867 48.238 8.178C47.6687 8.458 46.978 8.598 46.166 8.598H44.024V12H41.812V1.92ZM46.04 6.708C47.1693 6.708 47.734 6.22267 47.734 5.252C47.734 4.29067 47.1693 3.81 46.04 3.81H44.024V6.708H46.04ZM51.4299 1.92H56.0919C57.2959 1.92 58.1966 2.19067 58.7939 2.732C59.4006 3.27333 59.7039 4.00133 59.7039 4.916C59.7039 5.42933 59.5686 5.896 59.2979 6.316C59.0366 6.736 58.6586 7.09067 58.1639 7.38C58.5746 7.576 58.8826 7.83267 59.0879 8.15C59.2932 8.46733 59.4286 8.85467 59.4939 9.312L59.8999 12H57.6459L57.3099 9.676C57.2352 9.16267 57.0719 8.78467 56.8199 8.542C56.5679 8.29933 56.1992 8.178 55.7139 8.178H53.6419V12H51.4299V1.92ZM55.7279 6.47C56.3066 6.47 56.7359 6.358 57.0159 6.134C57.2959 5.90067 57.4359 5.55067 57.4359 5.084C57.4359 4.16933 56.8666 3.712 55.7279 3.712H53.6419V6.47H55.7279ZM65.9559 12.168C64.8919 12.168 63.9772 11.9393 63.2119 11.482C62.4465 11.0153 61.8632 10.39 61.4619 9.606C61.0699 8.81267 60.8739 7.93067 60.8739 6.96C60.8739 5.98933 61.0699 5.112 61.4619 4.328C61.8632 3.53467 62.4465 2.90933 63.2119 2.452C63.9772 1.98533 64.8919 1.752 65.9559 1.752C67.0292 1.752 67.9485 1.98533 68.7139 2.452C69.4792 2.90933 70.0579 3.53467 70.4499 4.328C70.8419 5.112 71.0379 5.98933 71.0379 6.96C71.0379 7.93067 70.8419 8.81267 70.4499 9.606C70.0579 10.39 69.4792 11.0153 68.7139 11.482C67.9485 11.9393 67.0292 12.168 65.9559 12.168ZM63.1699 6.96C63.1699 7.912 63.3985 8.69133 63.8559 9.298C64.3225 9.90467 65.0225 10.208 65.9559 10.208C66.8892 10.208 67.5845 9.90467 68.0419 9.298C68.5085 8.69133 68.7419 7.912 68.7419 6.96C68.7419 6.008 68.5085 5.22867 68.0419 4.622C67.5845 4.01533 66.8892 3.712 65.9559 3.712C65.0225 3.712 64.3225 4.01533 63.8559 4.622C63.3985 5.22867 63.1699 6.008 63.1699 6.96ZM75.521 12.168C74.4104 12.168 73.5564 11.86 72.959 11.244C72.371 10.628 72.077 9.79267 72.077 8.738V8.178H74.205V8.738C74.205 9.25133 74.3077 9.63867 74.513 9.9C74.7184 10.152 75.0544 10.278 75.521 10.278C75.9877 10.278 76.3237 10.152 76.529 9.9C76.7344 9.63867 76.837 9.25133 76.837 8.738V1.92H79.049V8.738C79.049 9.79267 78.741 10.628 78.125 11.244C77.509 11.86 76.641 12.168 75.521 12.168ZM80.8168 1.92H88.4048V3.894H83.0288V5.924H87.9988V7.8H83.0288V10.026H88.3768V12H80.8168V1.92ZM94.5498 12.168C93.4858 12.168 92.5711 11.9393 91.8058 11.482C91.0404 11.0153 90.4571 10.39 90.0558 9.606C89.6638 8.81267 89.4678 7.93067 89.4678 6.96C89.4678 5.98933 89.6638 5.112 90.0558 4.328C90.4571 3.53467 91.0404 2.90933 91.8058 2.452C92.5711 1.98533 93.4858 1.752 94.5498 1.752C95.3898 1.752 96.1364 1.91533 96.7898 2.242C97.4524 2.55933 97.9844 3.00733 98.3858 3.586C98.7871 4.15533 99.0438 4.804 99.1558 5.532H96.9158C96.7758 4.98133 96.5004 4.54267 96.0898 4.216C95.6791 3.88 95.1658 3.712 94.5498 3.712C93.6164 3.712 92.9164 4.01533 92.4498 4.622C91.9924 5.22867 91.7638 6.008 91.7638 6.96C91.7638 7.912 91.9924 8.69133 92.4498 9.298C92.9164 9.90467 93.6164 10.208 94.5498 10.208C95.2031 10.208 95.7351 10.0213 96.1458 9.648C96.5564 9.26533 96.8224 8.766 96.9438 8.15H99.1838C99.0904 8.91533 98.8431 9.606 98.4418 10.222C98.0498 10.8287 97.5178 11.3047 96.8458 11.65C96.1831 11.9953 95.4178 12.168 94.5498 12.168ZM103.188 3.894H100.052V1.92H108.536V3.894H105.414V12H103.188V3.894ZM113.699 12.168C112.355 12.168 111.295 11.8553 110.521 11.23C109.746 10.6047 109.354 9.73667 109.345 8.626H111.501C111.51 9.28867 111.72 9.75067 112.131 10.012C112.551 10.2733 113.101 10.404 113.783 10.404C114.343 10.404 114.786 10.2967 115.113 10.082C115.449 9.86733 115.617 9.564 115.617 9.172C115.617 8.948 115.556 8.76133 115.435 8.612C115.323 8.45333 115.094 8.31333 114.749 8.192C114.413 8.06133 113.913 7.94 113.251 7.828C111.963 7.61333 111.025 7.25867 110.437 6.764C109.858 6.26 109.569 5.55533 109.569 4.65C109.569 4.09 109.727 3.59067 110.045 3.152C110.362 2.71333 110.81 2.37267 111.389 2.13C111.977 1.878 112.663 1.752 113.447 1.752C114.763 1.752 115.775 2.05067 116.485 2.648C117.194 3.24533 117.572 4.08067 117.619 5.154H115.491C115.463 4.594 115.281 4.18333 114.945 3.922C114.618 3.65133 114.119 3.516 113.447 3.516C112.952 3.516 112.555 3.614 112.257 3.81C111.967 3.99667 111.823 4.25333 111.823 4.58C111.823 4.81333 111.879 5.00933 111.991 5.168C112.103 5.31733 112.317 5.45733 112.635 5.588C112.961 5.71867 113.428 5.83533 114.035 5.938C115.015 6.106 115.785 6.32533 116.345 6.596C116.914 6.86667 117.315 7.20267 117.549 7.604C117.782 7.996 117.899 8.47667 117.899 9.046C117.899 10.0447 117.511 10.8147 116.737 11.356C115.962 11.8973 114.949 12.168 113.699 12.168Z" fill="white" fill-opacity="0.6"/>
<path d="M123 13L126 13L126 1L123 0.999999" stroke="white" stroke-opacity="0.6" stroke-width="1.5"/>
<path d="M170.256 12.168C169.481 12.168 168.8 12.042 168.212 11.79C167.633 11.5287 167.181 11.1647 166.854 10.698C166.537 10.2313 166.378 9.69933 166.378 9.102C166.378 8.542 166.518 8.05667 166.798 7.646C167.078 7.226 167.479 6.89467 168.002 6.652C167.61 6.41867 167.307 6.12467 167.092 5.77C166.887 5.41533 166.784 5.00467 166.784 4.538C166.784 3.978 166.933 3.488 167.232 3.068C167.531 2.648 167.941 2.326 168.464 2.102C168.996 1.86867 169.593 1.752 170.256 1.752C170.928 1.752 171.525 1.864 172.048 2.088C172.58 2.312 172.995 2.63867 173.294 3.068C173.593 3.488 173.742 3.978 173.742 4.538C173.742 5.00467 173.635 5.41533 173.42 5.77C173.215 6.12467 172.916 6.41867 172.524 6.652C173.047 6.89467 173.448 7.226 173.728 7.646C174.008 8.05667 174.148 8.542 174.148 9.102C174.148 9.69933 173.985 10.2313 173.658 10.698C173.341 11.1647 172.888 11.5287 172.3 11.79C171.712 12.042 171.031 12.168 170.256 12.168ZM168.548 8.92C168.548 9.368 168.697 9.73667 168.996 10.026C169.295 10.306 169.715 10.446 170.256 10.446C170.807 10.446 171.231 10.306 171.53 10.026C171.829 9.73667 171.978 9.368 171.978 8.92C171.978 8.472 171.824 8.11267 171.516 7.842C171.217 7.562 170.797 7.422 170.256 7.422C169.715 7.422 169.295 7.562 168.996 7.842C168.697 8.11267 168.548 8.472 168.548 8.92ZM168.772 4.692C168.772 5.07467 168.903 5.38733 169.164 5.63C169.435 5.87267 169.799 5.994 170.256 5.994C170.723 5.994 171.087 5.87267 171.348 5.63C171.619 5.38733 171.754 5.07467 171.754 4.692C171.754 4.3 171.619 3.98267 171.348 3.74C171.077 3.488 170.713 3.362 170.256 3.362C169.808 3.362 169.449 3.488 169.178 3.74C168.907 3.98267 168.772 4.3 168.772 4.692ZM178.774 8.094L174.882 1.92H177.416L179.88 6.064L182.344 1.92H184.794L180.986 8.066V12H178.774V8.094Z" fill="white"/>
<path d="M196 1H193V13H196" stroke="white" stroke-opacity="0.6" stroke-width="1.5"/>
<path d="M200.812 1.92H208.4V3.894H203.024V5.924H207.994V7.8H203.024V10.026H208.372V12H200.812V1.92ZM213.845 8.71L211.647 12H209.155L212.599 6.862L209.295 1.92H211.843L213.873 4.958L215.903 1.92H218.381L215.119 6.806L218.591 12H216.043L213.845 8.71ZM219.761 1.92H224.115C224.927 1.92 225.617 2.06467 226.187 2.354C226.756 2.634 227.181 3.026 227.461 3.53C227.75 4.034 227.895 4.608 227.895 5.252C227.895 5.90533 227.75 6.484 227.461 6.988C227.181 7.492 226.756 7.88867 226.187 8.178C225.617 8.458 224.927 8.598 224.115 8.598H221.973V12H219.761V1.92ZM223.989 6.708C225.118 6.708 225.683 6.22267 225.683 5.252C225.683 4.29067 225.118 3.81 223.989 3.81H221.973V6.708H223.989ZM229.379 1.92H236.967V3.894H231.591V5.924H236.561V7.8H231.591V10.026H236.939V12H229.379V1.92ZM238.45 1.92H243.112C244.316 1.92 245.216 2.19067 245.814 2.732C246.42 3.27333 246.724 4.00133 246.724 4.916C246.724 5.42933 246.588 5.896 246.318 6.316C246.056 6.736 245.678 7.09067 245.184 7.38C245.594 7.576 245.902 7.83267 246.108 8.15C246.313 8.46733 246.448 8.85467 246.514 9.312L246.92 12H244.666L244.33 9.676C244.255 9.16267 244.092 8.78467 243.84 8.542C243.588 8.29933 243.219 8.178 242.734 8.178H240.662V12H238.45V1.92ZM242.748 6.47C243.326 6.47 243.756 6.358 244.036 6.134C244.316 5.90067 244.456 5.55067 244.456 5.084C244.456 4.16933 243.886 3.712 242.748 3.712H240.662V6.47H242.748ZM248.314 1.92H250.526V12H248.314V1.92ZM252.435 1.92H260.023V3.894H254.647V5.924H259.617V7.8H254.647V10.026H259.995V12H252.435V1.92ZM263.634 4.986V12H261.506V1.92H263.914L268.128 8.948V1.92H270.242V12H267.834L263.634 4.986ZM276.825 12.168C275.761 12.168 274.847 11.9393 274.081 11.482C273.316 11.0153 272.733 10.39 272.331 9.606C271.939 8.81267 271.743 7.93067 271.743 6.96C271.743 5.98933 271.939 5.112 272.331 4.328C272.733 3.53467 273.316 2.90933 274.081 2.452C274.847 1.98533 275.761 1.752 276.825 1.752C277.665 1.752 278.412 1.91533 279.065 2.242C279.728 2.55933 280.26 3.00733 280.661 3.586C281.063 4.15533 281.319 4.804 281.431 5.532H279.191C279.051 4.98133 278.776 4.54267 278.365 4.216C277.955 3.88 277.441 3.712 276.825 3.712C275.892 3.712 275.192 4.01533 274.725 4.622C274.268 5.22867 274.039 6.008 274.039 6.96C274.039 7.912 274.268 8.69133 274.725 9.298C275.192 9.90467 275.892 10.208 276.825 10.208C277.479 10.208 278.011 10.0213 278.421 9.648C278.832 9.26533 279.098 8.766 279.219 8.15H281.459C281.366 8.91533 281.119 9.606 280.717 10.222C280.325 10.8287 279.793 11.3047 279.121 11.65C278.459 11.9953 277.693 12.168 276.825 12.168ZM282.943 1.92H290.531V3.894H285.155V5.924H290.125V7.8H285.155V10.026H290.503V12H282.943V1.92Z" fill="white" fill-opacity="0.6"/>
<path d="M295 13L298 13L298 1L295 0.999999" stroke="white" stroke-opacity="0.6" stroke-width="1.5"/>
<path d="M342.578 12.168C341.187 12.168 340.165 11.7013 339.512 10.768C338.868 9.83467 338.546 8.56533 338.546 6.96C338.546 5.35467 338.868 4.08533 339.512 3.152C340.165 2.21867 341.187 1.752 342.578 1.752C343.969 1.752 344.991 2.21867 345.644 3.152C346.297 4.08533 346.624 5.35467 346.624 6.96C346.624 8.56533 346.297 9.83467 345.644 10.768C344.991 11.7013 343.969 12.168 342.578 12.168ZM340.842 6.96C340.842 8.07067 340.968 8.91067 341.22 9.48C341.481 10.04 341.934 10.32 342.578 10.32C343.231 10.32 343.684 10.04 343.936 9.48C344.197 8.91067 344.328 8.07067 344.328 6.96C344.328 5.84933 344.197 5.014 343.936 4.454C343.684 3.88467 343.231 3.6 342.578 3.6C341.934 3.6 341.481 3.88467 341.22 4.454C340.968 5.014 340.842 5.84933 340.842 6.96ZM350.254 7.8C349.432 7.8 348.812 7.52467 348.392 6.974C347.972 6.414 347.762 5.68133 347.762 4.776C347.762 3.87067 347.972 3.14267 348.392 2.592C348.812 2.032 349.432 1.752 350.254 1.752C351.084 1.752 351.71 2.032 352.13 2.592C352.55 3.14267 352.76 3.87067 352.76 4.776C352.76 5.68133 352.55 6.414 352.13 6.974C351.71 7.52467 351.084 7.8 350.254 7.8ZM349.302 4.776C349.302 5.364 349.376 5.80733 349.526 6.106C349.675 6.40467 349.918 6.554 350.254 6.554C350.59 6.554 350.832 6.40467 350.982 6.106C351.14 5.80733 351.22 5.364 351.22 4.776C351.22 4.19733 351.14 3.75867 350.982 3.46C350.832 3.152 350.59 2.998 350.254 2.998C349.918 2.998 349.675 3.152 349.526 3.46C349.376 3.75867 349.302 4.19733 349.302 4.776ZM355.798 1.92H357.198L351.85 12H350.45L355.798 1.92ZM354.902 9.144C354.902 8.23867 355.112 7.51067 355.532 6.96C355.952 6.4 356.572 6.12 357.394 6.12C358.224 6.12 358.85 6.4 359.27 6.96C359.69 7.51067 359.9 8.23867 359.9 9.144C359.9 10.0493 359.69 10.782 359.27 11.342C358.85 11.8927 358.224 12.168 357.394 12.168C356.572 12.168 355.952 11.8927 355.532 11.342C355.112 10.782 354.902 10.0493 354.902 9.144ZM356.442 9.144C356.442 9.732 356.516 10.1753 356.666 10.474C356.815 10.7727 357.058 10.922 357.394 10.922C357.73 10.922 357.972 10.7727 358.122 10.474C358.28 10.1753 358.36 9.732 358.36 9.144C358.36 8.56533 358.28 8.12667 358.122 7.828C357.972 7.52 357.73 7.366 357.394 7.366C357.058 7.366 356.815 7.52 356.666 7.828C356.516 8.12667 356.442 8.56533 356.442 9.144Z" fill="white"/>
<path d="M372 1H369V13H372" stroke="white" stroke-opacity="0.6" stroke-width="1.5"/>
<path d="M376.812 1.92H384.12V3.894H379.024V5.924H383.854V7.8H379.024V12H376.812V1.92ZM391.9 10.012H387.658L386.958 12H384.704L388.47 1.92H391.074L394.938 12H392.6L391.9 10.012ZM391.242 8.15L389.772 3.95L388.302 8.15H391.242ZM396.116 1.92H398.328V12H396.116V1.92ZM400.238 1.92H402.45V10.026H407.168V12H400.238V1.92ZM408.489 1.92H416.077V3.894H410.701V5.924H415.671V7.8H410.701V10.026H416.049V12H408.489V1.92ZM417.56 1.92H421.494C422.632 1.92 423.584 2.13933 424.35 2.578C425.124 3.00733 425.698 3.6 426.072 4.356C426.445 5.112 426.632 5.98 426.632 6.96C426.632 7.94 426.445 8.808 426.072 9.564C425.698 10.32 425.124 10.9173 424.35 11.356C423.584 11.7853 422.632 12 421.494 12H417.56V1.92ZM421.494 10.11C422.455 10.11 423.169 9.82067 423.636 9.242C424.102 8.66333 424.336 7.90267 424.336 6.96C424.336 6.01733 424.102 5.25667 423.636 4.678C423.169 4.09933 422.455 3.81 421.494 3.81H419.772V10.11H421.494ZM431.627 1.92H435.981C436.793 1.92 437.484 2.06467 438.053 2.354C438.623 2.634 439.047 3.026 439.327 3.53C439.617 4.034 439.761 4.608 439.761 5.252C439.761 5.90533 439.617 6.484 439.327 6.988C439.047 7.492 438.623 7.88867 438.053 8.178C437.484 8.458 436.793 8.598 435.981 8.598H433.839V12H431.627V1.92ZM435.855 6.708C436.985 6.708 437.549 6.22267 437.549 5.252C437.549 4.29067 436.985 3.81 435.855 3.81H433.839V6.708H435.855ZM441.245 1.92H445.907C447.111 1.92 448.012 2.19067 448.609 2.732C449.216 3.27333 449.519 4.00133 449.519 4.916C449.519 5.42933 449.384 5.896 449.113 6.316C448.852 6.736 448.474 7.09067 447.979 7.38C448.39 7.576 448.698 7.83267 448.903 8.15C449.109 8.46733 449.244 8.85467 449.309 9.312L449.715 12H447.461L447.125 9.676C447.051 9.16267 446.887 8.78467 446.635 8.542C446.383 8.29933 446.015 8.178 445.529 8.178H443.457V12H441.245V1.92ZM445.543 6.47C446.122 6.47 446.551 6.358 446.831 6.134C447.111 5.90067 447.251 5.55067 447.251 5.084C447.251 4.16933 446.682 3.712 445.543 3.712H443.457V6.47H445.543ZM455.771 12.168C454.707 12.168 453.793 11.9393 453.027 11.482C452.262 11.0153 451.679 10.39 451.277 9.606C450.885 8.81267 450.689 7.93067 450.689 6.96C450.689 5.98933 450.885 5.112 451.277 4.328C451.679 3.53467 452.262 2.90933 453.027 2.452C453.793 1.98533 454.707 1.752 455.771 1.752C456.845 1.752 457.764 1.98533 458.529 2.452C459.295 2.90933 459.873 3.53467 460.265 4.328C460.657 5.112 460.853 5.98933 460.853 6.96C460.853 7.93067 460.657 8.81267 460.265 9.606C459.873 10.39 459.295 11.0153 458.529 11.482C457.764 11.9393 456.845 12.168 455.771 12.168ZM452.985 6.96C452.985 7.912 453.214 8.69133 453.671 9.298C454.138 9.90467 454.838 10.208 455.771 10.208C456.705 10.208 457.4 9.90467 457.857 9.298C458.324 8.69133 458.557 7.912 458.557 6.96C458.557 6.008 458.324 5.22867 457.857 4.622C457.4 4.01533 456.705 3.712 455.771 3.712C454.838 3.712 454.138 4.01533 453.671 4.622C453.214 5.22867 452.985 6.008 452.985 6.96ZM465.337 12.168C464.226 12.168 463.372 11.86 462.775 11.244C462.187 10.628 461.893 9.79267 461.893 8.738V8.178H464.021V8.738C464.021 9.25133 464.123 9.63867 464.329 9.9C464.534 10.152 464.87 10.278 465.337 10.278C465.803 10.278 466.139 10.152 466.345 9.9C466.55 9.63867 466.653 9.25133 466.653 8.738V1.92H468.865V8.738C468.865 9.79267 468.557 10.628 467.941 11.244C467.325 11.86 466.457 12.168 465.337 12.168ZM470.632 1.92H478.22V3.894H472.844V5.924H477.814V7.8H472.844V10.026H478.192V12H470.632V1.92ZM484.365 12.168C483.301 12.168 482.387 11.9393 481.621 11.482C480.856 11.0153 480.273 10.39 479.871 9.606C479.479 8.81267 479.283 7.93067 479.283 6.96C479.283 5.98933 479.479 5.112 479.871 4.328C480.273 3.53467 480.856 2.90933 481.621 2.452C482.387 1.98533 483.301 1.752 484.365 1.752C485.205 1.752 485.952 1.91533 486.605 2.242C487.268 2.55933 487.8 3.00733 488.201 3.586C488.603 4.15533 488.859 4.804 488.971 5.532H486.731C486.591 4.98133 486.316 4.54267 485.905 4.216C485.495 3.88 484.981 3.712 484.365 3.712C483.432 3.712 482.732 4.01533 482.265 4.622C481.808 5.22867 481.579 6.008 481.579 6.96C481.579 7.912 481.808 8.69133 482.265 9.298C482.732 9.90467 483.432 10.208 484.365 10.208C485.019 10.208 485.551 10.0213 485.961 9.648C486.372 9.26533 486.638 8.766 486.759 8.15H488.999C488.906 8.91533 488.659 9.606 488.257 10.222C487.865 10.8287 487.333 11.3047 486.661 11.65C485.999 11.9953 485.233 12.168 484.365 12.168ZM493.003 3.894H489.867V1.92H498.351V3.894H495.229V12H493.003V3.894ZM503.514 12.168C502.17 12.168 501.111 11.8553 500.336 11.23C499.562 10.6047 499.17 9.73667 499.16 8.626H501.316C501.326 9.28867 501.536 9.75067 501.946 10.012C502.366 10.2733 502.917 10.404 503.598 10.404C504.158 10.404 504.602 10.2967 504.928 10.082C505.264 9.86733 505.432 9.564 505.432 9.172C505.432 8.948 505.372 8.76133 505.25 8.612C505.138 8.45333 504.91 8.31333 504.564 8.192C504.228 8.06133 503.729 7.94 503.066 7.828C501.778 7.61333 500.84 7.25867 500.252 6.764C499.674 6.26 499.384 5.55533 499.384 4.65C499.384 4.09 499.543 3.59067 499.86 3.152C500.178 2.71333 500.626 2.37267 501.204 2.13C501.792 1.878 502.478 1.752 503.262 1.752C504.578 1.752 505.591 2.05067 506.3 2.648C507.01 3.24533 507.388 4.08067 507.434 5.154H505.306C505.278 4.594 505.096 4.18333 504.76 3.922C504.434 3.65133 503.934 3.516 503.262 3.516C502.768 3.516 502.371 3.614 502.072 3.81C501.783 3.99667 501.638 4.25333 501.638 4.58C501.638 4.81333 501.694 5.00933 501.806 5.168C501.918 5.31733 502.133 5.45733 502.45 5.588C502.777 5.71867 503.244 5.83533 503.85 5.938C504.83 6.106 505.6 6.32533 506.16 6.596C506.73 6.86667 507.131 7.20267 507.364 7.604C507.598 7.996 507.714 8.47667 507.714 9.046C507.714 10.0447 507.327 10.8147 506.552 11.356C505.778 11.8973 504.765 12.168 503.514 12.168Z" fill="white" fill-opacity="0.6"/>
<path d="M513 13L516 13L516 1L513 0.999999" stroke="white" stroke-opacity="0.6" stroke-width="1.5"/>
</svg>
