<svg width="129" height="15" viewBox="0 0 129 15" fill="none" xmlns="http://www.w3.org/2000/svg">
<path d="M7.5 5.16667V9.83333M5.16667 7.5H9.83333M14.5 7.5C14.5 11.366 11.366 14.5 7.5 14.5C3.63401 14.5 0.5 11.366 0.5 7.5C0.5 3.63401 3.63401 0.5 7.5 0.5C11.366 0.5 14.5 3.63401 14.5 7.5Z" stroke="white" stroke-opacity="0.6" stroke-linecap="square"/>
<path d="M25.44 5.486V12.5H23.312V2.42H25.72L29.934 9.448V2.42H32.048V12.5H29.64L25.44 5.486ZM33.969 2.42H41.557V4.394H36.181V6.424H41.151V8.3H36.181V10.526H41.529V12.5H33.969V2.42ZM49.284 5.276L47.632 12.5H45.14L42.312 2.42H44.636L46.498 9.882L48.15 2.42H50.404L52.056 9.882L53.918 2.42H56.242L53.414 12.5H50.936L49.284 5.276ZM60.9222 2.42H65.2762C66.0882 2.42 66.7789 2.56467 67.3482 2.854C67.9176 3.134 68.3422 3.526 68.6222 4.03C68.9116 4.534 69.0562 5.108 69.0562 5.752C69.0562 6.40533 68.9116 6.984 68.6222 7.488C68.3422 7.992 67.9176 8.38867 67.3482 8.678C66.7789 8.958 66.0882 9.098 65.2762 9.098H63.1342V12.5H60.9222V2.42ZM65.1502 7.208C66.2796 7.208 66.8442 6.72267 66.8442 5.752C66.8442 4.79067 66.2796 4.31 65.1502 4.31H63.1342V7.208H65.1502ZM70.5401 2.42H75.2021C76.4061 2.42 77.3068 2.69067 77.9041 3.232C78.5108 3.77333 78.8141 4.50133 78.8141 5.416C78.8141 5.92933 78.6788 6.396 78.4081 6.816C78.1468 7.236 77.7688 7.59067 77.2741 7.88C77.6848 8.076 77.9928 8.33267 78.1981 8.65C78.4035 8.96733 78.5388 9.35467 78.6041 9.812L79.0101 12.5H76.7561L76.4201 10.176C76.3455 9.66267 76.1821 9.28467 75.9301 9.042C75.6781 8.79933 75.3095 8.678 74.8241 8.678H72.7521V12.5H70.5401V2.42ZM74.8381 6.97C75.4168 6.97 75.8461 6.858 76.1261 6.634C76.4061 6.40067 76.5461 6.05067 76.5461 5.584C76.5461 4.66933 75.9768 4.212 74.8381 4.212H72.7521V6.97H74.8381ZM85.0661 12.668C84.0021 12.668 83.0874 12.4393 82.3221 11.982C81.5568 11.5153 80.9734 10.89 80.5721 10.106C80.1801 9.31267 79.9841 8.43067 79.9841 7.46C79.9841 6.48933 80.1801 5.612 80.5721 4.828C80.9734 4.03467 81.5568 3.40933 82.3221 2.952C83.0874 2.48533 84.0021 2.252 85.0661 2.252C86.1394 2.252 87.0588 2.48533 87.8241 2.952C88.5894 3.40933 89.1681 4.03467 89.5601 4.828C89.9521 5.612 90.1481 6.48933 90.1481 7.46C90.1481 8.43067 89.9521 9.31267 89.5601 10.106C89.1681 10.89 88.5894 11.5153 87.8241 11.982C87.0588 12.4393 86.1394 12.668 85.0661 12.668ZM82.2801 7.46C82.2801 8.412 82.5088 9.19133 82.9661 9.798C83.4328 10.4047 84.1328 10.708 85.0661 10.708C85.9994 10.708 86.6948 10.4047 87.1521 9.798C87.6188 9.19133 87.8521 8.412 87.8521 7.46C87.8521 6.508 87.6188 5.72867 87.1521 5.122C86.6948 4.51533 85.9994 4.212 85.0661 4.212C84.1328 4.212 83.4328 4.51533 82.9661 5.122C82.5088 5.72867 82.2801 6.508 82.2801 7.46ZM94.6313 12.668C93.5206 12.668 92.6666 12.36 92.0693 11.744C91.4813 11.128 91.1873 10.2927 91.1873 9.238V8.678H93.3153V9.238C93.3153 9.75133 93.4179 10.1387 93.6233 10.4C93.8286 10.652 94.1646 10.778 94.6313 10.778C95.0979 10.778 95.4339 10.652 95.6393 10.4C95.8446 10.1387 95.9473 9.75133 95.9473 9.238V2.42H98.1593V9.238C98.1593 10.2927 97.8513 11.128 97.2353 11.744C96.6193 12.36 95.7513 12.668 94.6313 12.668ZM99.927 2.42H107.515V4.394H102.139V6.424H107.109V8.3H102.139V10.526H107.487V12.5H99.927V2.42ZM113.66 12.668C112.596 12.668 111.681 12.4393 110.916 11.982C110.151 11.5153 109.567 10.89 109.166 10.106C108.774 9.31267 108.578 8.43067 108.578 7.46C108.578 6.48933 108.774 5.612 109.166 4.828C109.567 4.03467 110.151 3.40933 110.916 2.952C111.681 2.48533 112.596 2.252 113.66 2.252C114.5 2.252 115.247 2.41533 115.9 2.742C116.563 3.05933 117.095 3.50733 117.496 4.086C117.897 4.65533 118.154 5.304 118.266 6.032H116.026C115.886 5.48133 115.611 5.04267 115.2 4.716C114.789 4.38 114.276 4.212 113.66 4.212C112.727 4.212 112.027 4.51533 111.56 5.122C111.103 5.72867 110.874 6.508 110.874 7.46C110.874 8.412 111.103 9.19133 111.56 9.798C112.027 10.4047 112.727 10.708 113.66 10.708C114.313 10.708 114.845 10.5213 115.256 10.148C115.667 9.76533 115.933 9.266 116.054 8.65H118.294C118.201 9.41533 117.953 10.106 117.552 10.722C117.16 11.3287 116.628 11.8047 115.956 12.15C115.293 12.4953 114.528 12.668 113.66 12.668ZM122.298 4.394H119.162V2.42H127.646V4.394H124.524V12.5H122.298V4.394Z" fill="white"/>
</svg>
