<svg width="450" height="14" viewBox="0 0 450 14" fill="none" xmlns="http://www.w3.org/2000/svg">
<path d="M0.812 1.92H5.166C5.978 1.92 6.66867 2.06467 7.238 2.354C7.80733 2.634 8.232 3.026 8.512 3.53C8.80133 4.034 8.946 4.608 8.946 5.252C8.946 5.90533 8.80133 6.484 8.512 6.988C8.232 7.492 7.80733 7.88867 7.238 8.178C6.66867 8.458 5.978 8.598 5.166 8.598H3.024V12H0.812V1.92ZM5.04 6.708C6.16933 6.708 6.734 6.22267 6.734 5.252C6.734 4.29067 6.16933 3.81 5.04 3.81H3.024V6.708H5.04ZM10.4299 1.92H15.0919C16.2959 1.92 17.1966 2.19067 17.7939 2.732C18.4006 3.27333 18.7039 4.00133 18.7039 4.916C18.7039 5.42933 18.5686 5.896 18.2979 6.316C18.0366 6.736 17.6586 7.09067 17.1639 7.38C17.5746 7.576 17.8826 7.83267 18.0879 8.15C18.2932 8.46733 18.4286 8.85467 18.4939 9.312L18.8999 12H16.6459L16.3099 9.676C16.2352 9.16267 16.0719 8.78467 15.8199 8.542C15.5679 8.29933 15.1992 8.178 14.7139 8.178H12.6419V12H10.4299V1.92ZM14.7279 6.47C15.3066 6.47 15.7359 6.358 16.0159 6.134C16.2959 5.90067 16.4359 5.55067 16.4359 5.084C16.4359 4.16933 15.8666 3.712 14.7279 3.712H12.6419V6.47H14.7279ZM24.9559 12.168C23.8919 12.168 22.9772 11.9393 22.2119 11.482C21.4465 11.0153 20.8632 10.39 20.4619 9.606C20.0699 8.81267 19.8739 7.93067 19.8739 6.96C19.8739 5.98933 20.0699 5.112 20.4619 4.328C20.8632 3.53467 21.4465 2.90933 22.2119 2.452C22.9772 1.98533 23.8919 1.752 24.9559 1.752C26.0292 1.752 26.9485 1.98533 27.7139 2.452C28.4792 2.90933 29.0579 3.53467 29.4499 4.328C29.8419 5.112 30.0379 5.98933 30.0379 6.96C30.0379 7.93067 29.8419 8.81267 29.4499 9.606C29.0579 10.39 28.4792 11.0153 27.7139 11.482C26.9485 11.9393 26.0292 12.168 24.9559 12.168ZM22.1699 6.96C22.1699 7.912 22.3985 8.69133 22.8559 9.298C23.3225 9.90467 24.0225 10.208 24.9559 10.208C25.8892 10.208 26.5845 9.90467 27.0419 9.298C27.5085 8.69133 27.7419 7.912 27.7419 6.96C27.7419 6.008 27.5085 5.22867 27.0419 4.622C26.5845 4.01533 25.8892 3.712 24.9559 3.712C24.0225 3.712 23.3225 4.01533 22.8559 4.622C22.3985 5.22867 22.1699 6.008 22.1699 6.96ZM34.521 12.168C33.4104 12.168 32.5564 11.86 31.959 11.244C31.371 10.628 31.077 9.79267 31.077 8.738V8.178H33.205V8.738C33.205 9.25133 33.3077 9.63867 33.513 9.9C33.7184 10.152 34.0544 10.278 34.521 10.278C34.9877 10.278 35.3237 10.152 35.529 9.9C35.7344 9.63867 35.837 9.25133 35.837 8.738V1.92H38.049V8.738C38.049 9.79267 37.741 10.628 37.125 11.244C36.509 11.86 35.641 12.168 34.521 12.168ZM39.8168 1.92H47.4048V3.894H42.0288V5.924H46.9988V7.8H42.0288V10.026H47.3768V12H39.8168V1.92ZM53.5498 12.168C52.4858 12.168 51.5711 11.9393 50.8058 11.482C50.0404 11.0153 49.4571 10.39 49.0558 9.606C48.6638 8.81267 48.4678 7.93067 48.4678 6.96C48.4678 5.98933 48.6638 5.112 49.0558 4.328C49.4571 3.53467 50.0404 2.90933 50.8058 2.452C51.5711 1.98533 52.4858 1.752 53.5498 1.752C54.3898 1.752 55.1364 1.91533 55.7898 2.242C56.4524 2.55933 56.9844 3.00733 57.3858 3.586C57.7871 4.15533 58.0438 4.804 58.1558 5.532H55.9158C55.7758 4.98133 55.5004 4.54267 55.0898 4.216C54.6791 3.88 54.1658 3.712 53.5498 3.712C52.6164 3.712 51.9164 4.01533 51.4498 4.622C50.9924 5.22867 50.7638 6.008 50.7638 6.96C50.7638 7.912 50.9924 8.69133 51.4498 9.298C51.9164 9.90467 52.6164 10.208 53.5498 10.208C54.2031 10.208 54.7351 10.0213 55.1458 9.648C55.5564 9.26533 55.8224 8.766 55.9438 8.15H58.1838C58.0904 8.91533 57.8431 9.606 57.4418 10.222C57.0498 10.8287 56.5178 11.3047 55.8458 11.65C55.1831 11.9953 54.4178 12.168 53.5498 12.168ZM62.1878 3.894H59.0518V1.92H67.5358V3.894H64.4138V12H62.1878V3.894Z" fill="white"/>
<path d="M79 1H76V13H79" stroke="white" stroke-opacity="0.6" stroke-width="1.5"/>
<path d="M83.812 1.92H87.746C88.8847 1.92 89.8367 2.13933 90.602 2.578C91.3767 3.00733 91.9507 3.6 92.324 4.356C92.6973 5.112 92.884 5.98 92.884 6.96C92.884 7.94 92.6973 8.808 92.324 9.564C91.9507 10.32 91.3767 10.9173 90.602 11.356C89.8367 11.7853 88.8847 12 87.746 12H83.812V1.92ZM87.746 10.11C88.7073 10.11 89.4213 9.82067 89.888 9.242C90.3547 8.66333 90.588 7.90267 90.588 6.96C90.588 6.01733 90.3547 5.25667 89.888 4.678C89.4213 4.09933 88.7073 3.81 87.746 3.81H86.024V10.11H87.746ZM94.3732 1.92H101.961V3.894H96.5852V5.924H101.555V7.8H96.5852V10.026H101.933V12H94.3732V1.92ZM107.322 12.168C105.978 12.168 104.919 11.8553 104.144 11.23C103.37 10.6047 102.978 9.73667 102.968 8.626H105.124C105.134 9.28867 105.344 9.75067 105.754 10.012C106.174 10.2733 106.725 10.404 107.406 10.404C107.966 10.404 108.41 10.2967 108.736 10.082C109.072 9.86733 109.24 9.564 109.24 9.172C109.24 8.948 109.18 8.76133 109.058 8.612C108.946 8.45333 108.718 8.31333 108.372 8.192C108.036 8.06133 107.537 7.94 106.874 7.828C105.586 7.61333 104.648 7.25867 104.06 6.764C103.482 6.26 103.192 5.55533 103.192 4.65C103.192 4.09 103.351 3.59067 103.668 3.152C103.986 2.71333 104.434 2.37267 105.012 2.13C105.6 1.878 106.286 1.752 107.07 1.752C108.386 1.752 109.399 2.05067 110.108 2.648C110.818 3.24533 111.196 4.08067 111.242 5.154H109.114C109.086 4.594 108.904 4.18333 108.568 3.922C108.242 3.65133 107.742 3.516 107.07 3.516C106.576 3.516 106.179 3.614 105.88 3.81C105.591 3.99667 105.446 4.25333 105.446 4.58C105.446 4.81333 105.502 5.00933 105.614 5.168C105.726 5.31733 105.941 5.45733 106.258 5.588C106.585 5.71867 107.052 5.83533 107.658 5.938C108.638 6.106 109.408 6.32533 109.968 6.596C110.538 6.86667 110.939 7.20267 111.172 7.604C111.406 7.996 111.522 8.47667 111.522 9.046C111.522 10.0447 111.135 10.8147 110.36 11.356C109.586 11.8973 108.573 12.168 107.322 12.168ZM112.925 1.92H115.137V12H112.925V1.92ZM121.373 12.168C120.412 12.168 119.572 11.9393 118.853 11.482C118.135 11.0153 117.584 10.3853 117.201 9.592C116.819 8.79867 116.627 7.92133 116.627 6.96C116.627 5.98933 116.823 5.112 117.215 4.328C117.617 3.53467 118.2 2.90933 118.965 2.452C119.731 1.98533 120.645 1.752 121.709 1.752C122.587 1.752 123.361 1.91067 124.033 2.228C124.705 2.536 125.247 2.96533 125.657 3.516C126.068 4.05733 126.334 4.68267 126.455 5.392H124.215C124.066 4.87867 123.772 4.468 123.333 4.16C122.904 3.84267 122.363 3.684 121.709 3.684C120.776 3.684 120.076 3.992 119.609 4.608C119.152 5.224 118.923 6.008 118.923 6.96C118.923 7.912 119.152 8.696 119.609 9.312C120.076 9.928 120.776 10.236 121.709 10.236C122.391 10.236 122.946 10.0633 123.375 9.718C123.814 9.36333 124.127 8.864 124.313 8.22H121.289V6.456H126.595V12H124.985V10.264C124.285 11.5333 123.081 12.168 121.373 12.168ZM130.488 4.986V12H128.36V1.92H130.768L134.982 8.948V1.92H137.096V12H134.688L130.488 4.986Z" fill="white" fill-opacity="0.6"/>
<path d="M142 13L145 13L145 1L142 0.999999" stroke="white" stroke-opacity="0.6" stroke-width="1.5"/>
<path d="M156 1H153V13H156" stroke="white" stroke-opacity="0.6" stroke-width="1.5"/>
<path d="M160.812 1.92H164.746C165.885 1.92 166.837 2.13933 167.602 2.578C168.377 3.00733 168.951 3.6 169.324 4.356C169.697 5.112 169.884 5.98 169.884 6.96C169.884 7.94 169.697 8.808 169.324 9.564C168.951 10.32 168.377 10.9173 167.602 11.356C166.837 11.7853 165.885 12 164.746 12H160.812V1.92ZM164.746 10.11C165.707 10.11 166.421 9.82067 166.888 9.242C167.355 8.66333 167.588 7.90267 167.588 6.96C167.588 6.01733 167.355 5.25667 166.888 4.678C166.421 4.09933 165.707 3.81 164.746 3.81H163.024V10.11H164.746ZM171.373 1.92H178.961V3.894H173.585V5.924H178.555V7.8H173.585V10.026H178.933V12H171.373V1.92ZM179.716 1.92H182.068L184.742 10.026L187.36 1.92H189.712L186.002 12H183.412L179.716 1.92ZM190.882 1.92H198.47V3.894H193.094V5.924H198.064V7.8H193.094V10.026H198.442V12H190.882V1.92ZM199.953 1.92H202.165V10.026H206.883V12H199.953V1.92ZM212.866 12.168C211.802 12.168 210.888 11.9393 210.122 11.482C209.357 11.0153 208.774 10.39 208.372 9.606C207.98 8.81267 207.784 7.93067 207.784 6.96C207.784 5.98933 207.98 5.112 208.372 4.328C208.774 3.53467 209.357 2.90933 210.122 2.452C210.888 1.98533 211.802 1.752 212.866 1.752C213.94 1.752 214.859 1.98533 215.624 2.452C216.39 2.90933 216.968 3.53467 217.36 4.328C217.752 5.112 217.948 5.98933 217.948 6.96C217.948 7.93067 217.752 8.81267 217.36 9.606C216.968 10.39 216.39 11.0153 215.624 11.482C214.859 11.9393 213.94 12.168 212.866 12.168ZM210.08 6.96C210.08 7.912 210.309 8.69133 210.766 9.298C211.233 9.90467 211.933 10.208 212.866 10.208C213.8 10.208 214.495 9.90467 214.952 9.298C215.419 8.69133 215.652 7.912 215.652 6.96C215.652 6.008 215.419 5.22867 214.952 4.622C214.495 4.01533 213.8 3.712 212.866 3.712C211.933 3.712 211.233 4.01533 210.766 4.622C210.309 5.22867 210.08 6.008 210.08 6.96ZM219.435 1.92H223.789C224.601 1.92 225.292 2.06467 225.861 2.354C226.431 2.634 226.855 3.026 227.135 3.53C227.425 4.034 227.569 4.608 227.569 5.252C227.569 5.90533 227.425 6.484 227.135 6.988C226.855 7.492 226.431 7.88867 225.861 8.178C225.292 8.458 224.601 8.598 223.789 8.598H221.647V12H219.435V1.92ZM223.663 6.708C224.793 6.708 225.357 6.22267 225.357 5.252C225.357 4.29067 224.793 3.81 223.663 3.81H221.647V6.708H223.663ZM231.167 4.51V12H229.053V1.92H232.315L234.569 9.172L236.809 1.92H240.057V12H237.957V4.51L235.493 12H233.631L231.167 4.51ZM241.98 1.92H249.568V3.894H244.192V5.924H249.162V7.8H244.192V10.026H249.54V12H241.98V1.92ZM253.179 4.986V12H251.051V1.92H253.459L257.673 8.948V1.92H259.787V12H257.379L253.179 4.986ZM264.228 3.894H261.092V1.92H269.576V3.894H266.454V12H264.228V3.894Z" fill="white" fill-opacity="0.6"/>
<path d="M274 13L277 13L277 1L274 0.999999" stroke="white" stroke-opacity="0.6" stroke-width="1.5"/>
<path d="M290.065 1.33594L286.784 13.5312H285.027L288.309 1.33594H290.065Z" fill="white" fill-opacity="0.6"/>
<path d="M302 1H299V13H302" stroke="white" stroke-opacity="0.6" stroke-width="1.5"/>
<path d="M311.474 12.168C310.41 12.168 309.495 11.9393 308.73 11.482C307.965 11.0153 307.381 10.39 306.98 9.606C306.588 8.81267 306.392 7.93067 306.392 6.96C306.392 5.98933 306.588 5.112 306.98 4.328C307.381 3.53467 307.965 2.90933 308.73 2.452C309.495 1.98533 310.41 1.752 311.474 1.752C312.314 1.752 313.061 1.91533 313.714 2.242C314.377 2.55933 314.909 3.00733 315.31 3.586C315.711 4.15533 315.968 4.804 316.08 5.532H313.84C313.7 4.98133 313.425 4.54267 313.014 4.216C312.603 3.88 312.09 3.712 311.474 3.712C310.541 3.712 309.841 4.01533 309.374 4.622C308.917 5.22867 308.688 6.008 308.688 6.96C308.688 7.912 308.917 8.69133 309.374 9.298C309.841 9.90467 310.541 10.208 311.474 10.208C312.127 10.208 312.659 10.0213 313.07 9.648C313.481 9.26533 313.747 8.766 313.868 8.15H316.108C316.015 8.91533 315.767 9.606 315.366 10.222C314.974 10.8287 314.442 11.3047 313.77 11.65C313.107 11.9953 312.342 12.168 311.474 12.168ZM321.736 12.168C320.887 12.168 320.14 12.014 319.496 11.706C318.852 11.398 318.348 10.9453 317.984 10.348C317.629 9.74133 317.452 9.00867 317.452 8.15V1.92H319.664V8.15C319.664 8.85 319.841 9.37733 320.196 9.732C320.56 10.0773 321.073 10.25 321.736 10.25C322.399 10.25 322.912 10.0773 323.276 9.732C323.64 9.37733 323.822 8.85 323.822 8.15V1.92H326.02V8.15C326.02 9.00867 325.838 9.74133 325.474 10.348C325.119 10.9453 324.62 11.398 323.976 11.706C323.332 12.014 322.585 12.168 321.736 12.168ZM331.676 12.168C330.332 12.168 329.272 11.8553 328.498 11.23C327.723 10.6047 327.331 9.73667 327.322 8.626H329.478C329.487 9.28867 329.697 9.75067 330.108 10.012C330.528 10.2733 331.078 10.404 331.76 10.404C332.32 10.404 332.763 10.2967 333.09 10.082C333.426 9.86733 333.594 9.564 333.594 9.172C333.594 8.948 333.533 8.76133 333.412 8.612C333.3 8.45333 333.071 8.31333 332.726 8.192C332.39 8.06133 331.89 7.94 331.228 7.828C329.94 7.61333 329.002 7.25867 328.414 6.764C327.835 6.26 327.546 5.55533 327.546 4.65C327.546 4.09 327.704 3.59067 328.022 3.152C328.339 2.71333 328.787 2.37267 329.366 2.13C329.954 1.878 330.64 1.752 331.424 1.752C332.74 1.752 333.752 2.05067 334.462 2.648C335.171 3.24533 335.549 4.08067 335.596 5.154H333.468C333.44 4.594 333.258 4.18333 332.922 3.922C332.595 3.65133 332.096 3.516 331.424 3.516C330.929 3.516 330.532 3.614 330.234 3.81C329.944 3.99667 329.8 4.25333 329.8 4.58C329.8 4.81333 329.856 5.00933 329.968 5.168C330.08 5.31733 330.294 5.45733 330.612 5.588C330.938 5.71867 331.405 5.83533 332.012 5.938C332.992 6.106 333.762 6.32533 334.322 6.596C334.891 6.86667 335.292 7.20267 335.526 7.604C335.759 7.996 335.876 8.47667 335.876 9.046C335.876 10.0447 335.488 10.8147 334.714 11.356C333.939 11.8973 332.926 12.168 331.676 12.168ZM339.799 3.894H336.663V1.92H345.147V3.894H342.025V12H339.799V3.894ZM351.094 12.168C350.03 12.168 349.115 11.9393 348.35 11.482C347.585 11.0153 347.001 10.39 346.6 9.606C346.208 8.81267 346.012 7.93067 346.012 6.96C346.012 5.98933 346.208 5.112 346.6 4.328C347.001 3.53467 347.585 2.90933 348.35 2.452C349.115 1.98533 350.03 1.752 351.094 1.752C352.167 1.752 353.087 1.98533 353.852 2.452C354.617 2.90933 355.196 3.53467 355.588 4.328C355.98 5.112 356.176 5.98933 356.176 6.96C356.176 7.93067 355.98 8.81267 355.588 9.606C355.196 10.39 354.617 11.0153 353.852 11.482C353.087 11.9393 352.167 12.168 351.094 12.168ZM348.308 6.96C348.308 7.912 348.537 8.69133 348.994 9.298C349.461 9.90467 350.161 10.208 351.094 10.208C352.027 10.208 352.723 9.90467 353.18 9.298C353.647 8.69133 353.88 7.912 353.88 6.96C353.88 6.008 353.647 5.22867 353.18 4.622C352.723 4.01533 352.027 3.712 351.094 3.712C350.161 3.712 349.461 4.01533 348.994 4.622C348.537 5.22867 348.308 6.008 348.308 6.96ZM359.777 4.51V12H357.663V1.92H360.925L363.179 9.172L365.419 1.92H368.667V12H366.567V4.51L364.103 12H362.241L359.777 4.51ZM374.096 1.92H378.45C379.262 1.92 379.953 2.06467 380.522 2.354C381.092 2.634 381.516 3.026 381.796 3.53C382.086 4.034 382.23 4.608 382.23 5.252C382.23 5.90533 382.086 6.484 381.796 6.988C381.516 7.492 381.092 7.88867 380.522 8.178C379.953 8.458 379.262 8.598 378.45 8.598H376.308V12H374.096V1.92ZM378.324 6.708C379.454 6.708 380.018 6.22267 380.018 5.252C380.018 4.29067 379.454 3.81 378.324 3.81H376.308V6.708H378.324ZM383.714 1.92H388.376C389.58 1.92 390.481 2.19067 391.078 2.732C391.685 3.27333 391.988 4.00133 391.988 4.916C391.988 5.42933 391.853 5.896 391.582 6.316C391.321 6.736 390.943 7.09067 390.448 7.38C390.859 7.576 391.167 7.83267 391.372 8.15C391.577 8.46733 391.713 8.85467 391.778 9.312L392.184 12H389.93L389.594 9.676C389.519 9.16267 389.356 8.78467 389.104 8.542C388.852 8.29933 388.483 8.178 387.998 8.178H385.926V12H383.714V1.92ZM388.012 6.47C388.591 6.47 389.02 6.358 389.3 6.134C389.58 5.90067 389.72 5.55067 389.72 5.084C389.72 4.16933 389.151 3.712 388.012 3.712H385.926V6.47H388.012ZM398.24 12.168C397.176 12.168 396.261 11.9393 395.496 11.482C394.731 11.0153 394.147 10.39 393.746 9.606C393.354 8.81267 393.158 7.93067 393.158 6.96C393.158 5.98933 393.354 5.112 393.746 4.328C394.147 3.53467 394.731 2.90933 395.496 2.452C396.261 1.98533 397.176 1.752 398.24 1.752C399.313 1.752 400.233 1.98533 400.998 2.452C401.763 2.90933 402.342 3.53467 402.734 4.328C403.126 5.112 403.322 5.98933 403.322 6.96C403.322 7.93067 403.126 8.81267 402.734 9.606C402.342 10.39 401.763 11.0153 400.998 11.482C400.233 11.9393 399.313 12.168 398.24 12.168ZM395.454 6.96C395.454 7.912 395.683 8.69133 396.14 9.298C396.607 9.90467 397.307 10.208 398.24 10.208C399.173 10.208 399.869 9.90467 400.326 9.298C400.793 8.69133 401.026 7.912 401.026 6.96C401.026 6.008 400.793 5.22867 400.326 4.622C399.869 4.01533 399.173 3.712 398.24 3.712C397.307 3.712 396.607 4.01533 396.14 4.622C395.683 5.22867 395.454 6.008 395.454 6.96ZM407.805 12.168C406.695 12.168 405.841 11.86 405.243 11.244C404.655 10.628 404.361 9.79267 404.361 8.738V8.178H406.489V8.738C406.489 9.25133 406.592 9.63867 406.797 9.9C407.003 10.152 407.339 10.278 407.805 10.278C408.272 10.278 408.608 10.152 408.813 9.9C409.019 9.63867 409.121 9.25133 409.121 8.738V1.92H411.333V8.738C411.333 9.79267 411.025 10.628 410.409 11.244C409.793 11.86 408.925 12.168 407.805 12.168ZM413.101 1.92H420.689V3.894H415.313V5.924H420.283V7.8H415.313V10.026H420.661V12H413.101V1.92ZM426.834 12.168C425.77 12.168 424.855 11.9393 424.09 11.482C423.325 11.0153 422.741 10.39 422.34 9.606C421.948 8.81267 421.752 7.93067 421.752 6.96C421.752 5.98933 421.948 5.112 422.34 4.328C422.741 3.53467 423.325 2.90933 424.09 2.452C424.855 1.98533 425.77 1.752 426.834 1.752C427.674 1.752 428.421 1.91533 429.074 2.242C429.737 2.55933 430.269 3.00733 430.67 3.586C431.071 4.15533 431.328 4.804 431.44 5.532H429.2C429.06 4.98133 428.785 4.54267 428.374 4.216C427.963 3.88 427.45 3.712 426.834 3.712C425.901 3.712 425.201 4.01533 424.734 4.622C424.277 5.22867 424.048 6.008 424.048 6.96C424.048 7.912 424.277 8.69133 424.734 9.298C425.201 9.90467 425.901 10.208 426.834 10.208C427.487 10.208 428.019 10.0213 428.43 9.648C428.841 9.26533 429.107 8.766 429.228 8.15H431.468C431.375 8.91533 431.127 9.606 430.726 10.222C430.334 10.8287 429.802 11.3047 429.13 11.65C428.467 11.9953 427.702 12.168 426.834 12.168ZM435.472 3.894H432.336V1.92H440.82V3.894H437.698V12H435.472V3.894Z" fill="white" fill-opacity="0.6"/>
<path d="M446 13L449 13L449 1L446 0.999999" stroke="white" stroke-opacity="0.6" stroke-width="1.5"/>
</svg>
