<svg width="142" height="14" viewBox="0 0 142 14" fill="none" xmlns="http://www.w3.org/2000/svg">
<path d="M0 7.00002H14" stroke="white" stroke-width="1.5"/>
<path d="M3.5 0.93782L10.5 13.0622" stroke="white" stroke-width="1.5"/>
<path d="M10.5 0.93782L3.5 13.0622" stroke="white" stroke-width="1.5"/>
<path d="M19.187 1.92H23.541C24.353 1.92 25.0437 2.06467 25.613 2.354C26.1823 2.634 26.607 3.026 26.887 3.53C27.1763 4.034 27.321 4.608 27.321 5.252C27.321 5.90533 27.1763 6.484 26.887 6.988C26.607 7.492 26.1823 7.88867 25.613 8.178C25.0437 8.458 24.353 8.598 23.541 8.598H21.399V12H19.187V1.92ZM23.415 6.708C24.5443 6.708 25.109 6.22267 25.109 5.252C25.109 4.29067 24.5443 3.81 23.415 3.81H21.399V6.708H23.415ZM33.4669 12.168C32.4029 12.168 31.4882 11.9393 30.7229 11.482C29.9576 11.0153 29.3742 10.39 28.9729 9.606C28.5809 8.81267 28.3849 7.93067 28.3849 6.96C28.3849 5.98933 28.5809 5.112 28.9729 4.328C29.3742 3.53467 29.9576 2.90933 30.7229 2.452C31.4882 1.98533 32.4029 1.752 33.4669 1.752C34.5402 1.752 35.4596 1.98533 36.2249 2.452C36.9902 2.90933 37.5689 3.53467 37.9609 4.328C38.3529 5.112 38.5489 5.98933 38.5489 6.96C38.5489 7.93067 38.3529 8.81267 37.9609 9.606C37.5689 10.39 36.9902 11.0153 36.2249 11.482C35.4596 11.9393 34.5402 12.168 33.4669 12.168ZM30.6809 6.96C30.6809 7.912 30.9096 8.69133 31.3669 9.298C31.8336 9.90467 32.5336 10.208 33.4669 10.208C34.4002 10.208 35.0956 9.90467 35.5529 9.298C36.0196 8.69133 36.2529 7.912 36.2529 6.96C36.2529 6.008 36.0196 5.22867 35.5529 4.622C35.0956 4.01533 34.4002 3.712 33.4669 3.712C32.5336 3.712 31.8336 4.01533 31.3669 4.622C30.9096 5.22867 30.6809 6.008 30.6809 6.96ZM40.0361 1.92H44.6981C45.9021 1.92 46.8027 2.19067 47.4001 2.732C48.0067 3.27333 48.3101 4.00133 48.3101 4.916C48.3101 5.42933 48.1747 5.896 47.9041 6.316C47.6427 6.736 47.2647 7.09067 46.7701 7.38C47.1807 7.576 47.4887 7.83267 47.6941 8.15C47.8994 8.46733 48.0347 8.85467 48.1001 9.312L48.5061 12H46.2521L45.9161 9.676C45.8414 9.16267 45.6781 8.78467 45.4261 8.542C45.1741 8.29933 44.8054 8.178 44.3201 8.178H42.2481V12H40.0361V1.92ZM44.3341 6.47C44.9127 6.47 45.3421 6.358 45.6221 6.134C45.9021 5.90067 46.0421 5.55067 46.0421 5.084C46.0421 4.16933 45.4727 3.712 44.3341 3.712H42.2481V6.47H44.3341ZM52.42 3.894H49.284V1.92H57.768V3.894H54.646V12H52.42V3.894ZM59.0531 1.92H66.3611V3.894H61.2651V5.924H66.0951V7.8H61.2651V12H59.0531V1.92ZM72.3349 12.168C71.2709 12.168 70.3563 11.9393 69.5909 11.482C68.8256 11.0153 68.2423 10.39 67.8409 9.606C67.4489 8.81267 67.2529 7.93067 67.2529 6.96C67.2529 5.98933 67.4489 5.112 67.8409 4.328C68.2423 3.53467 68.8256 2.90933 69.5909 2.452C70.3563 1.98533 71.2709 1.752 72.3349 1.752C73.4083 1.752 74.3276 1.98533 75.0929 2.452C75.8583 2.90933 76.4369 3.53467 76.8289 4.328C77.2209 5.112 77.4169 5.98933 77.4169 6.96C77.4169 7.93067 77.2209 8.81267 76.8289 9.606C76.4369 10.39 75.8583 11.0153 75.0929 11.482C74.3276 11.9393 73.4083 12.168 72.3349 12.168ZM69.5489 6.96C69.5489 7.912 69.7776 8.69133 70.2349 9.298C70.7016 9.90467 71.4016 10.208 72.3349 10.208C73.2683 10.208 73.9636 9.90467 74.4209 9.298C74.8876 8.69133 75.1209 7.912 75.1209 6.96C75.1209 6.008 74.8876 5.22867 74.4209 4.622C73.9636 4.01533 73.2683 3.712 72.3349 3.712C71.4016 3.712 70.7016 4.01533 70.2349 4.622C69.7776 5.22867 69.5489 6.008 69.5489 6.96ZM78.9041 1.92H81.1161V10.026H85.8341V12H78.9041V1.92ZM87.1548 1.92H89.3668V12H87.1548V1.92ZM95.9386 12.168C94.8746 12.168 93.9599 11.9393 93.1946 11.482C92.4293 11.0153 91.8459 10.39 91.4446 9.606C91.0526 8.81267 90.8566 7.93067 90.8566 6.96C90.8566 5.98933 91.0526 5.112 91.4446 4.328C91.8459 3.53467 92.4293 2.90933 93.1946 2.452C93.9599 1.98533 94.8746 1.752 95.9386 1.752C97.0119 1.752 97.9313 1.98533 98.6966 2.452C99.4619 2.90933 100.041 3.53467 100.433 4.328C100.825 5.112 101.021 5.98933 101.021 6.96C101.021 7.93067 100.825 8.81267 100.433 9.606C100.041 10.39 99.4619 11.0153 98.6966 11.482C97.9313 11.9393 97.0119 12.168 95.9386 12.168ZM93.1526 6.96C93.1526 7.912 93.3813 8.69133 93.8386 9.298C94.3053 9.90467 95.0053 10.208 95.9386 10.208C96.8719 10.208 97.5673 9.90467 98.0246 9.298C98.4913 8.69133 98.7246 7.912 98.7246 6.96C98.7246 6.008 98.4913 5.22867 98.0246 4.622C97.5673 4.01533 96.8719 3.712 95.9386 3.712C95.0053 3.712 94.3053 4.01533 93.8386 4.622C93.3813 5.22867 93.1526 6.008 93.1526 6.96ZM102.172 7.072H108.78V8.822H102.172V7.072ZM114.674 12.168C113.713 12.168 112.873 11.9393 112.154 11.482C111.436 11.0153 110.885 10.3853 110.502 9.592C110.12 8.79867 109.928 7.92133 109.928 6.96C109.928 5.98933 110.124 5.112 110.516 4.328C110.918 3.53467 111.501 2.90933 112.266 2.452C113.032 1.98533 113.946 1.752 115.01 1.752C115.888 1.752 116.662 1.91067 117.334 2.228C118.006 2.536 118.548 2.96533 118.958 3.516C119.369 4.05733 119.635 4.68267 119.756 5.392H117.516C117.367 4.87867 117.073 4.468 116.634 4.16C116.205 3.84267 115.664 3.684 115.01 3.684C114.077 3.684 113.377 3.992 112.91 4.608C112.453 5.224 112.224 6.008 112.224 6.96C112.224 7.912 112.453 8.696 112.91 9.312C113.377 9.928 114.077 10.236 115.01 10.236C115.692 10.236 116.247 10.0633 116.676 9.718C117.115 9.36333 117.428 8.864 117.614 8.22H114.59V6.456H119.896V12H118.286V10.264C117.586 11.5333 116.382 12.168 114.674 12.168ZM126.324 12.168C125.26 12.168 124.345 11.9393 123.58 11.482C122.814 11.0153 122.231 10.39 121.83 9.606C121.438 8.81267 121.242 7.93067 121.242 6.96C121.242 5.98933 121.438 5.112 121.83 4.328C122.231 3.53467 122.814 2.90933 123.58 2.452C124.345 1.98533 125.26 1.752 126.324 1.752C127.397 1.752 128.316 1.98533 129.082 2.452C129.847 2.90933 130.426 3.53467 130.818 4.328C131.21 5.112 131.406 5.98933 131.406 6.96C131.406 7.93067 131.21 8.81267 130.818 9.606C130.426 10.39 129.847 11.0153 129.082 11.482C128.316 11.9393 127.397 12.168 126.324 12.168ZM123.538 6.96C123.538 7.912 123.766 8.69133 124.224 9.298C124.69 9.90467 125.39 10.208 126.324 10.208C127.257 10.208 127.952 9.90467 128.41 9.298C128.876 8.69133 129.11 7.912 129.11 6.96C129.11 6.008 128.876 5.22867 128.41 4.622C127.952 4.01533 127.257 3.712 126.324 3.712C125.39 3.712 124.69 4.01533 124.224 4.622C123.766 5.22867 123.538 6.008 123.538 6.96ZM136.309 1.92H137.751L138.549 4.636L139.347 1.92H140.789V5.952H139.865V2.984L138.941 5.952H138.143L137.233 3.04V5.952H136.309V1.92ZM132.445 1.92H135.889V2.774H134.657V5.952H133.677V2.774H132.445V1.92Z" fill="white"/>
</svg>
