<svg width="158" height="15" viewBox="0 0 158 15" fill="none" xmlns="http://www.w3.org/2000/svg">
<path d="M3.75 1H0.75V13H3.75" stroke="white" stroke-opacity="0.6" stroke-width="1.5"/>
<path fill-rule="evenodd" clip-rule="evenodd" d="M13.7505 8.99984L15.8846 12.6961L17.1836 11.9461L14.9053 8H19.75V6.5H15.1938L17.6164 2.30386L16.3174 1.55386L13.7505 5.99984L11.1836 1.55383L9.88456 2.30383L12.3072 6.5H7.75V8H12.5957L10.3174 11.9462L11.6164 12.6962L13.7505 8.99984Z" fill="#EAB243"/>
<path fill-rule="evenodd" clip-rule="evenodd" d="M31.7505 8.99984L33.8846 12.6961L35.1836 11.9461L32.9053 8H37.75V6.5H33.1938L35.6164 2.30386L34.3174 1.55386L31.7505 5.99984L29.1836 1.55383L27.8846 2.30383L30.3072 6.5H25.75V8H30.5957L28.3174 11.9462L29.6164 12.6962L31.7505 8.99984Z" fill="#EAB243"/>
<path fill-rule="evenodd" clip-rule="evenodd" d="M49.7505 8.99984L51.8846 12.6961L53.1836 11.9461L50.9053 8H55.75V6.5H51.1938L53.6164 2.30386L52.3174 1.55386L49.7505 5.99984L47.1836 1.55383L45.8846 2.30383L48.3072 6.5H43.75V8H48.5957L46.3174 11.9462L47.6164 12.6962L49.7505 8.99984Z" fill="#EAB243"/>
<path fill-rule="evenodd" clip-rule="evenodd" d="M67.7505 8.99984L69.8846 12.6961L71.1836 11.9461L68.9053 8H73.75V6.5H69.1938L71.6164 2.30386L70.3174 1.55386L67.7505 5.99984L65.1836 1.55383L63.8846 2.30383L66.3072 6.5H61.75V8H66.5957L64.3174 11.9462L65.6164 12.6962L67.7505 8.99984Z" fill="#EAB243"/>
<path fill-rule="evenodd" clip-rule="evenodd" d="M85.7505 8.99984L87.8846 12.6961L89.1836 11.9461L86.9053 8H91.75V6.5H87.1938L89.6164 2.30386L88.3174 1.55386L85.7505 5.99984L83.1836 1.55383L81.8846 2.30383L84.3072 6.5H79.75V8H84.5957L82.3174 11.9462L83.6164 12.6962L85.7505 8.99984Z" fill="#EAB243"/>
<path d="M95.75 13L98.75 13L98.75 1L95.75 0.999999" stroke="white" stroke-opacity="0.6" stroke-width="1.5"/>
<path d="M110.908 12.168C109.881 12.168 109.041 11.8973 108.388 11.356C107.735 10.8147 107.357 10.082 107.254 9.158H109.34C109.396 9.54067 109.559 9.84867 109.83 10.082C110.11 10.3153 110.469 10.432 110.908 10.432C111.403 10.432 111.799 10.264 112.098 9.928C112.406 9.592 112.56 9.16267 112.56 8.64C112.56 8.12667 112.406 7.70667 112.098 7.38C111.799 7.044 111.403 6.876 110.908 6.876C110.236 6.876 109.746 7.18867 109.438 7.814H107.394L108.276 1.92H114.17V3.768H109.97L109.662 5.826C110.091 5.49 110.642 5.322 111.314 5.322C112.042 5.322 112.653 5.476 113.148 5.784C113.652 6.08267 114.025 6.484 114.268 6.988C114.52 7.492 114.646 8.04267 114.646 8.64C114.646 9.34933 114.483 9.97 114.156 10.502C113.839 11.034 113.395 11.4447 112.826 11.734C112.266 12.0233 111.627 12.168 110.908 12.168ZM119.053 1.92H121.041L117.373 12H115.385L119.053 1.92ZM125.536 12.168C124.51 12.168 123.67 11.8973 123.016 11.356C122.363 10.8147 121.985 10.082 121.882 9.158H123.968C124.024 9.54067 124.188 9.84867 124.458 10.082C124.738 10.3153 125.098 10.432 125.536 10.432C126.031 10.432 126.428 10.264 126.726 9.928C127.034 9.592 127.188 9.16267 127.188 8.64C127.188 8.12667 127.034 7.70667 126.726 7.38C126.428 7.044 126.031 6.876 125.536 6.876C124.864 6.876 124.374 7.18867 124.066 7.814H122.022L122.904 1.92H128.798V3.768H124.598L124.29 5.826C124.72 5.49 125.27 5.322 125.942 5.322C126.67 5.322 127.282 5.476 127.776 5.784C128.28 6.08267 128.654 6.484 128.896 6.988C129.148 7.492 129.274 8.04267 129.274 8.64C129.274 9.34933 129.111 9.97 128.784 10.502C128.467 11.034 128.024 11.4447 127.454 11.734C126.894 12.0233 126.255 12.168 125.536 12.168ZM135.466 14.8C134.822 13.5587 134.336 12.3827 134.01 11.272C133.683 10.152 133.52 8.99467 133.52 7.8C133.52 6.60533 133.683 5.45267 134.01 4.342C134.336 3.222 134.822 2.04133 135.466 0.8H137.342C136.735 2.04133 136.292 3.21267 136.012 4.314C135.741 5.406 135.606 6.568 135.606 7.8C135.606 9.032 135.741 10.1987 136.012 11.3C136.292 12.392 136.735 13.5587 137.342 14.8H135.466ZM140.762 4.244L138.662 5.714V3.46L140.888 1.92H142.96V12H140.762V4.244ZM144.591 10.25L148.651 6.708C148.977 6.41867 149.229 6.12 149.407 5.812C149.584 5.504 149.673 5.17267 149.673 4.818C149.673 4.43533 149.542 4.13667 149.281 3.922C149.029 3.70733 148.688 3.6 148.259 3.6C147.773 3.6 147.391 3.74 147.111 4.02C146.84 4.3 146.709 4.706 146.719 5.238H144.591C144.591 4.12733 144.903 3.26867 145.529 2.662C146.163 2.05533 147.073 1.752 148.259 1.752C148.949 1.752 149.565 1.878 150.107 2.13C150.648 2.382 151.068 2.732 151.367 3.18C151.665 3.61867 151.815 4.12267 151.815 4.692C151.815 5.31733 151.651 5.88667 151.325 6.4C151.007 6.91333 150.583 7.408 150.051 7.884L147.475 10.152H151.927V12H144.591V10.25ZM152.776 14.8C153.383 13.5587 153.821 12.392 154.092 11.3C154.372 10.1987 154.512 9.032 154.512 7.8C154.512 6.568 154.372 5.406 154.092 4.314C153.821 3.21267 153.383 2.04133 152.776 0.8H154.652C155.296 2.04133 155.781 3.222 156.108 4.342C156.435 5.45267 156.598 6.60533 156.598 7.8C156.598 8.99467 156.435 10.152 156.108 11.272C155.781 12.3827 155.296 13.5587 154.652 14.8H152.776Z" fill="white"/>
</svg>
